<svg width="167" height="102" viewBox="0 0 167 102" fill="none" xmlns="http://www.w3.org/2000/svg">
<path fill-rule="evenodd" clip-rule="evenodd" d="M1.37892 78.1577C1.5418 78.1972 1.8861 78.4015 2.14011 78.6323C2.39412 78.8631 3.45151 79.5707 4.50862 80.2056C6.91288 81.6667 9.89539 84.63 11.1513 86.8203C11.6184 87.6427 12.0249 88.3376 12.0612 88.3706C12.1759 88.4387 12.3032 87.0349 12.5255 83.6554C12.7976 79.1273 13.0676 77.202 13.9461 73.659C16.4808 63.4088 20.7609 55.685 27.1157 49.955C30.3651 47.0107 35.9385 43.4287 40.018 41.6366C48.8991 37.768 59.0669 37.8542 65.6273 41.8617C67.053 42.723 70.5311 46.0643 71.906 47.8562L72.4995 48.6126L73.2353 47.1467C77.0278 39.5949 79.1171 35.886 82.389 30.9C85.8825 25.5728 89.6317 20.912 93.8104 16.6777C108.412 1.87196 128.77 -3.10845 147.268 3.60633C150.28 4.71489 155.737 7.14149 157.93 8.37393C162.23 10.7619 166.113 15.9905 166.259 19.5964C166.3 20.8637 166.1 22.1289 165.794 22.4658C165.434 22.8621 165.276 22.574 165.035 20.9439C164.652 18.4977 163.609 16.8265 160.9 14.3646C158.317 11.9818 157.955 11.7973 152.504 9.63031C144.108 6.30631 139.162 5.13996 131.976 4.83352C126.286 4.58304 121.834 5.13237 116.368 6.74961C109.607 8.74634 103.737 12.0228 98.4273 16.7487C95.6342 19.2393 90.6955 24.9176 88.1358 28.5609C84.1376 34.2977 81.6349 38.6802 77.377 47.4733C74.6919 53.0286 73.9908 54.0918 72.5049 54.8037C70.7002 55.6963 69.8546 55.2173 67.5163 52.0797C66.7833 51.0881 65.1735 49.3359 63.8551 48.1379C61.8531 46.2827 61.2911 45.8805 59.8967 45.3009C55.6771 43.5289 50.8484 43.2293 45.3863 44.3801C40.2073 45.4625 33.6695 49.0365 29.1352 53.2733C25.6759 56.4971 22.8669 61.1439 20.9419 66.8834C19.8391 70.1141 18.5923 76.6869 18.4426 80.1324L18.3031 83.0807L19.054 82.4245C19.4504 82.0611 21.4859 80.0397 23.5211 77.9457C27.8017 73.5507 28.4625 72.9935 29.8227 72.493C32.0919 71.6968 33.388 73.381 32.2457 75.7075C31.6596 76.9115 28.9967 80.3525 25.8164 84.0469C24.3582 85.7246 20.8841 89.8395 18.0943 93.2014C12.4427 100.005 12.0584 100.379 10.2588 101.023C8.01976 101.81 7.05156 100.786 6.15003 96.6744C5.79431 95.0488 5.17704 92.7876 4.73886 91.6659C2.90653 86.8535 0.798608 80.8864 0.602061 79.9119C0.381044 78.8428 0.733601 78.0417 1.37892 78.1577Z" fill="white"/>
</svg>
