<svg width="41" height="41" viewBox="0 0 41 41" fill="none" xmlns="http://www.w3.org/2000/svg">
<path d="M5.811 4.54714C5.69656 4.42433 5.55856 4.32582 5.40523 4.2575C5.2519 4.18918 5.08637 4.15245 4.91854 4.14949C4.7507 4.14653 4.58398 4.1774 4.42834 4.24027C4.27269 4.30314 4.1313 4.39671 4.0126 4.51541C3.8939 4.63411 3.80033 4.7755 3.73746 4.93114C3.67459 5.08679 3.64372 5.25351 3.64668 5.42134C3.64964 5.58918 3.68638 5.7547 3.7547 5.90804C3.82302 6.06137 3.92152 6.19937 4.04433 6.31381L7.70766 9.98047C5.1024 13.0009 3.67181 16.8584 3.67766 20.8471C3.6742 23.5104 4.31158 26.1354 5.536 28.5005L3.756 34.8721C3.65671 35.2279 3.65379 35.6037 3.74754 35.9609C3.84129 36.3182 4.02834 36.6441 4.28951 36.9053C4.55069 37.1665 4.87661 37.3535 5.23387 37.4473C5.59113 37.541 5.9669 37.5381 6.32266 37.4388L12.6993 35.6605C15.0624 36.8819 17.6843 37.5175 20.3443 37.5138C24.496 37.5138 28.2943 35.9955 31.211 33.4838L34.8777 37.1471C35.1146 37.3679 35.428 37.4881 35.7519 37.4824C36.0757 37.4767 36.3847 37.3455 36.6137 37.1165C36.8427 36.8875 36.9739 36.5785 36.9796 36.2547C36.9853 35.9308 36.8651 35.6174 36.6443 35.3805L5.811 4.54714ZM29.4393 31.7105C26.8915 33.8487 23.6705 35.0186 20.3443 35.0138C17.9335 35.018 15.5619 34.404 13.456 33.2305L13.006 32.9805L6.36266 34.8321L8.21766 28.1921L7.966 27.7421C6.7896 25.6347 6.17384 23.2607 6.17766 20.8471C6.17766 17.3855 7.41933 14.2138 9.48266 11.7521L14.4893 16.7605C14.2155 16.8635 13.9864 17.0593 13.842 17.3138C13.6977 17.5683 13.6472 17.8654 13.6993 18.1533C13.7515 18.4412 13.903 18.7017 14.1274 18.8894C14.3519 19.0771 14.6351 19.1801 14.9277 19.1805H16.911L20.2443 22.5138H14.9277L14.7577 22.5255C14.4439 22.5686 14.1582 22.7293 13.9584 22.975C13.7585 23.2207 13.6594 23.533 13.681 23.849C13.7025 24.165 13.8433 24.461 14.0747 24.6772C14.3061 24.8934 14.611 25.0137 14.9277 25.0138H22.4243L22.5943 25.0021L22.711 24.9805L29.4393 31.7105ZM25.7693 16.6805H21.481L23.981 19.1805H25.7677L25.9377 19.1688C26.2513 19.1257 26.5368 18.9651 26.7367 18.7196C26.9365 18.4741 27.0358 18.1619 27.0144 17.8461C26.9931 17.5303 26.8527 17.2343 26.6216 17.0179C26.3905 16.8016 26.0859 16.681 25.7693 16.6805Z" fill="black"/>
<path d="M34.5117 20.8471C34.5117 23.3971 33.8384 25.7904 32.6584 27.8571L34.4817 29.6804C36.1402 27.0331 37.0172 23.9711 37.0117 20.8471C37.0117 11.6421 29.5501 4.18045 20.3451 4.18045C17.2211 4.17493 14.1591 5.05193 11.5117 6.71045L13.3351 8.53378C15.49 7.3067 17.9293 6.66679 20.4091 6.678C22.8889 6.68921 25.3223 7.35116 27.4661 8.59767C29.6098 9.84418 31.3889 11.6316 32.6253 13.7812C33.8617 15.9308 34.5122 18.3673 34.5117 20.8471Z" fill="black"/>
</svg>
