<svg width="786" height="748" viewBox="0 0 786 748" fill="none" xmlns="http://www.w3.org/2000/svg">
<path d="M390.668 638.414C540.598 638.414 662.14 516.872 662.14 366.943C662.14 217.013 540.598 95.4713 390.668 95.4713C240.739 95.4713 119.197 217.013 119.197 366.943C119.197 516.872 240.739 638.414 390.668 638.414Z" stroke="#FF6161" stroke-width="2"/>
<path d="M390.669 719.211C585.222 719.211 742.938 561.495 742.938 366.943C742.938 172.39 585.222 14.6737 390.669 14.6737C196.117 14.6737 38.4004 172.39 38.4004 366.943C38.4004 561.495 196.117 719.211 390.669 719.211Z" stroke="#FF6161" stroke-width="2"/>
<path d="M390.669 561.865C498.322 561.865 585.592 474.595 585.592 366.943C585.592 259.29 498.322 172.02 390.669 172.02C283.016 172.02 195.746 259.29 195.746 366.943C195.746 474.595 283.016 561.865 390.669 561.865Z" stroke="#FF6161" stroke-width="2"/>
<path d="M327.663 0.317444H441.055C447.337 0.317444 452.43 5.41019 452.43 11.6924V83.992C452.43 90.2743 447.337 95.367 441.055 95.367H327.663C321.381 95.367 316.288 90.2743 316.288 83.992V11.6924C316.288 5.41019 321.381 0.317444 327.663 0.317444Z" fill="#FFBB00" fill-opacity="0.992157"/>
<path d="M316.283 68.02H367.171L316.283 121.901V68.02Z" fill="#FFBB00" fill-opacity="0.992157"/>
<path d="M373.033 43.2506V38.0883C374.421 36.8671 375.67 35.6459 376.78 34.4247C377.918 33.2035 378.82 31.913 379.486 30.553C380.152 29.193 380.485 27.7082 380.485 26.0984C380.485 24.794 380.138 23.7116 379.444 22.8512C378.778 21.9908 377.793 21.5606 376.488 21.5606C375.378 21.5606 374.49 21.8798 373.824 22.5181C373.186 23.1565 372.866 23.9752 372.866 24.9744C372.866 25.3352 372.894 25.6821 372.95 26.0152C373.005 26.3205 373.074 26.6674 373.158 27.056L368.995 27.847C368.856 27.4306 368.745 27.0005 368.662 26.5564C368.578 26.0846 368.537 25.6405 368.537 25.2242C368.537 23.0038 369.231 21.1998 370.618 19.8121C372.006 18.3966 373.963 17.6889 376.488 17.6889C379.125 17.6889 381.179 18.4382 382.65 19.937C384.121 21.4079 384.856 23.5034 384.856 26.2233C384.856 28.0829 384.509 29.762 383.815 31.2607C383.122 32.7595 382.178 34.1472 380.984 35.4239C379.791 36.7006 378.459 37.9634 376.988 39.2124V43.2506H373.033ZM372.825 51.7018V47.1223H377.279V51.7018H372.825Z" fill="black"/>
<path d="M45.0645 237.732C69.6551 237.732 89.5898 257.666 89.5898 282.257C89.5898 306.848 69.6552 326.782 45.0645 326.782C20.4738 326.782 0.539062 306.848 0.539062 282.257C0.539131 257.666 20.4738 237.732 45.0645 237.732Z" fill="#FF6161" stroke="#E3E3E3" stroke-width="0.246253"/>
<path d="M48.3473 257.349C47.2712 264.772 40.2622 268.243 33.799 266.005C33.5723 267.028 33.459 268.08 33.4551 269.136C33.4551 276.159 38.3109 281.852 44.3007 281.852C50.2913 281.852 55.1476 276.159 55.1476 269.136C55.1476 263.949 52.4537 259.285 48.3495 257.349H48.3473Z" stroke="#E3E3E3" stroke-width="1.6623" stroke-linecap="round"/>
<path d="M54.1455 291.909C56.8496 292.881 59.6063 294.93 61.6416 297.487C63.6916 300.062 64.9983 303.134 64.8008 306.114C60.0631 308.55 53.813 309.908 47.3125 309.915C40.8147 309.908 34.5714 308.546 29.8379 306.11C29.2119 300.424 33.2788 295.628 40.4863 291.92C40.8735 293.159 41.7423 294.579 42.9053 295.705C44.1129 296.875 45.6516 297.741 47.3125 297.745H47.3135C48.9739 297.744 50.5119 296.878 51.7197 295.709C52.8878 294.579 53.7591 293.151 54.1455 291.909Z" fill="#FF6161" stroke="#E3E3E3" stroke-width="0.246253"/>
<path d="M36.5196 288.628C28.0736 292.935 23.2466 298.558 24.0276 305.276C29.5151 308.119 36.7639 309.705 44.3013 309.713C51.8432 309.705 59.099 308.123 64.5921 305.279C65.112 298.267 58.4632 290.851 52.0845 288.634C51.2589 291.51 48.029 295.4 44.3013 295.403C40.5715 295.395 37.3416 291.506 36.5196 288.628V288.628Z" stroke="#E3E3E3" stroke-width="1.6623" stroke-linecap="round"/>
<path d="M32.5205 285.18C30.0686 281.93 28.5801 273.817 28.5801 269.136C28.5801 258.958 35.6178 250.707 44.2989 250.707C52.9802 250.707 60.0178 258.958 60.0178 269.136C60.0178 273.767 58.5607 281.839 56.1548 285.077" stroke="#E3E3E3" stroke-width="1.6623" stroke-linecap="round"/>
<path d="M643.814 73.236C668.405 73.236 688.34 93.1707 688.34 117.761C688.34 142.352 668.405 162.287 643.814 162.287C619.224 162.287 599.289 142.352 599.289 117.761C599.289 93.1707 619.224 73.236 643.814 73.236Z" fill="#FF6161" stroke="#E3E3E3" stroke-width="0.246253"/>
<path d="M655.103 127.252C658.338 128.048 661.634 129.741 664.061 131.85C666.491 133.962 668.023 136.466 667.802 138.88C662.169 140.884 654.741 142 647.016 142.007C639.293 142.002 631.868 140.881 626.24 138.876C625.88 136.566 626.893 134.43 629.081 132.484C631.276 130.531 634.64 128.781 638.933 127.257C639.394 128.287 640.433 129.46 641.815 130.386C643.249 131.346 645.064 132.051 647.015 132.055H647.016C648.965 132.054 650.78 131.35 652.214 130.39C653.601 129.461 654.641 128.283 655.103 127.252Z" fill="#FF6161" stroke="#E3E3E3" stroke-width="0.246253"/>
<path d="M634.586 124.185C624.558 127.851 618.827 132.637 619.754 138.354C626.269 140.774 634.877 142.124 643.826 142.13C652.781 142.123 661.396 140.777 667.918 138.357C668.535 132.389 660.64 126.077 653.067 124.19C652.086 126.638 648.252 129.949 643.826 129.952C639.397 129.944 635.562 126.635 634.586 124.185Z" stroke="#E3E3E3" stroke-width="1.6623" stroke-linecap="round"/>
<path d="M637.401 96.002V96.1585V96.3132C637.401 98.7525 635.566 100.761 633.201 101.039V111.658C633.201 117.328 637.798 121.924 643.468 121.924C643.581 121.924 643.691 121.912 643.803 121.907C643.915 121.907 644.025 121.924 644.138 121.924C649.808 121.924 654.405 117.328 654.405 111.658V101.039C652.04 100.761 650.205 98.7525 650.205 96.3132V96.1585V96.002H637.401Z" stroke="#E3E3E3" stroke-width="1.6623" stroke-linecap="round"/>
<path d="M643.362 84.6669C635.927 84.6669 629.898 90.6947 629.898 98.131C629.898 102.721 629.898 96.4821 629.898 101.075H632.64C635.27 101.075 637.401 98.9427 637.401 96.3133V96.1587V96.0022H650.205V96.1587V96.3133C650.205 98.9427 652.335 101.075 654.965 101.075H657.707C657.707 96.8004 657.707 102.406 657.707 98.131C657.707 90.6947 651.678 84.6669 644.243 84.6669C644.096 84.6669 643.953 84.6901 643.803 84.6901C643.656 84.6802 643.513 84.6669 643.362 84.6669V84.6669Z" stroke="#E3E3E3" stroke-width="1.6623" stroke-linecap="round"/>
<path d="M632.764 101.074C631.488 101.105 630.275 101.633 629.383 102.546C628.492 103.46 627.993 104.685 627.992 105.961C627.993 107.237 628.493 108.462 629.384 109.375C630.276 110.288 631.489 110.816 632.764 110.847V101.074Z" stroke="#E3E3E3" stroke-width="1.6623" stroke-linecap="round"/>
<path d="M654.84 101.074C656.116 101.105 657.329 101.633 658.221 102.546C659.112 103.46 659.612 104.685 659.612 105.961C659.611 107.237 659.112 108.462 658.22 109.375C657.329 110.288 656.115 110.816 654.84 110.847V101.074Z" stroke="#E3E3E3" stroke-width="1.6623" stroke-linecap="round"/>
<path d="M80.5332 484.626C105.124 484.626 125.059 504.561 125.059 529.152C125.059 553.742 105.124 573.677 80.5332 573.677C55.9425 573.677 36.0078 553.742 36.0078 529.152C36.0079 504.561 55.9426 484.626 80.5332 484.626Z" fill="#FF6161" stroke="#E3E3E3" stroke-width="0.246253"/>
<path d="M71.307 535.575C61.2786 539.241 55.5476 544.027 56.4746 549.745C62.9901 552.164 71.5974 553.514 80.5466 553.521C89.5013 553.513 98.1164 552.167 104.638 549.747C105.255 543.78 97.361 537.468 89.7874 535.581C88.8071 538.029 84.9725 541.339 80.5466 541.342C76.118 541.334 72.2828 538.025 71.307 535.575Z" stroke="#E3E3E3" stroke-width="1.6623" stroke-linecap="round"/>
<path d="M74.1256 507.392V507.549V507.703C74.1256 510.143 72.2907 512.151 69.9258 512.429V523.048C69.9258 528.718 74.5224 533.314 80.1924 533.314C80.3055 533.314 80.4154 533.302 80.5276 533.297C80.64 533.297 80.7497 533.314 80.8628 533.314C86.5328 533.314 91.1294 528.718 91.1294 523.048V512.429C88.7646 512.151 86.9296 510.143 86.9296 507.703V507.549V507.392H74.1256Z" stroke="#E3E3E3" stroke-width="1.6623" stroke-linecap="round"/>
<path d="M80.087 496.057C72.6512 496.057 66.623 502.085 66.623 509.521C66.623 514.111 66.623 507.872 66.623 512.465H69.365C71.9947 512.465 74.1256 510.333 74.1256 507.703V507.549V507.392H86.9292V507.549V507.703C86.9292 510.333 89.0597 512.465 91.6894 512.465H94.4314C94.4314 508.191 94.4314 513.796 94.4314 509.521C94.4314 502.085 88.4029 496.057 80.9674 496.057C80.821 496.057 80.6779 496.08 80.5272 496.08C80.3808 496.07 80.2377 496.057 80.087 496.057V496.057Z" stroke="#E3E3E3" stroke-width="1.6623" stroke-linecap="round"/>
<path d="M69.4888 512.464C68.2129 512.495 66.9996 513.024 66.1081 513.937C65.2165 514.85 64.7174 516.075 64.7168 517.352C64.7179 518.628 65.2174 519.853 66.1089 520.765C67.0004 521.678 68.2132 522.206 69.4888 522.237V512.464Z" stroke="#E3E3E3" stroke-width="1.6623" stroke-linecap="round"/>
<path d="M91.5645 512.464C92.8403 512.495 94.0536 513.024 94.9452 513.937C95.8367 514.85 96.3362 516.075 96.3368 517.352C96.3358 518.628 95.8363 519.853 94.9448 520.765C94.0532 521.678 92.84 522.206 91.5645 522.237V512.464Z" stroke="#E3E3E3" stroke-width="1.6623" stroke-linecap="round"/>
<path d="M274.608 747.329C299.266 747.329 319.256 727.339 319.256 702.68C319.256 678.022 299.266 658.032 274.608 658.032C249.949 658.032 229.959 678.022 229.959 702.68C229.959 727.339 249.949 747.329 274.608 747.329Z" fill="#FF6161"/>
<path d="M277.89 677.772C276.814 685.195 269.805 688.666 263.342 686.429C263.115 687.451 263.002 688.503 262.998 689.559C262.998 696.582 267.854 702.275 273.844 702.275C279.834 702.276 284.691 696.582 284.691 689.559C284.691 684.372 281.997 679.708 277.892 677.772H277.89Z" stroke="#FF6161" stroke-width="1.6623" stroke-linecap="round"/>
<path d="M270.106 712.167C262.777 715.904 258.589 720.784 259.267 726.613C264.028 729.079 270.318 730.456 276.858 730.463C283.402 730.455 289.699 729.083 294.465 726.615C294.916 720.531 289.147 714.096 283.612 712.172C282.895 714.668 280.093 718.043 276.858 718.046C273.622 718.038 270.819 714.664 270.106 712.167Z" fill="#FF6161"/>
<path d="M266.064 709.051C257.618 713.359 252.791 718.982 253.572 725.699C259.06 728.542 266.309 730.128 273.846 730.136C281.388 730.128 288.644 728.546 294.137 725.703C294.657 718.691 288.008 711.274 281.629 709.057C280.804 711.934 277.574 715.824 273.846 715.826C270.116 715.819 266.887 711.929 266.064 709.051V709.051Z" stroke="#FF6161" stroke-width="1.6623" stroke-linecap="round"/>
<path d="M262.065 705.603C259.613 702.353 258.125 694.24 258.125 689.559C258.125 679.381 265.163 671.131 273.844 671.13C282.525 671.13 289.563 679.381 289.563 689.559C289.563 694.191 288.106 702.263 285.7 705.5" stroke="#FF6161" stroke-width="1.6623" stroke-linecap="round"/>
<path d="M740.734 339.691C765.325 339.691 785.26 359.626 785.26 384.216C785.26 408.807 765.325 428.742 740.734 428.742C716.144 428.742 696.209 408.807 696.209 384.216C696.209 359.626 716.144 339.691 740.734 339.691Z" fill="#FF6161" stroke="#E3E3E3" stroke-width="0.246253"/>
<path d="M744.015 359.308C742.939 366.731 735.93 370.202 729.467 367.965C729.24 368.987 729.127 370.039 729.123 371.095C729.123 378.118 733.979 383.811 739.969 383.812C745.959 383.812 750.816 378.119 750.816 371.095C750.816 365.909 748.122 361.244 744.017 359.308H744.015Z" stroke="#E3E3E3" stroke-width="1.6623" stroke-linecap="round"/>
<path d="M732.189 390.587C723.743 394.895 718.916 400.518 719.697 407.236C725.185 410.078 732.434 411.665 739.971 411.672C747.513 411.665 754.769 410.082 760.262 407.239C760.782 400.227 754.133 392.811 747.754 390.593C746.929 393.47 743.699 397.36 739.971 397.363C736.241 397.355 733.012 393.466 732.189 390.587V390.587Z" stroke="#E3E3E3" stroke-width="1.6623" stroke-linecap="round"/>
<path d="M728.19 387.14C725.738 383.889 724.25 375.776 724.25 371.096C724.25 360.918 731.288 352.667 739.969 352.667C748.65 352.667 755.688 360.918 755.688 371.096C755.688 375.727 754.231 383.799 751.825 387.037" stroke="#E3E3E3" stroke-width="1.6623" stroke-linecap="round"/>
<path d="M242.707 606.532C251.851 606.532 259.263 599.12 259.263 589.977C259.263 580.834 251.851 573.422 242.707 573.422C233.564 573.422 226.152 580.834 226.152 589.977C226.152 599.12 233.564 606.532 242.707 606.532Z" fill="#FF6161"/>
<path d="M121.051 410.406C130.194 410.406 137.606 402.994 137.606 393.851C137.606 384.708 130.194 377.296 121.051 377.296C111.908 377.296 104.496 384.708 104.496 393.851C104.496 402.994 111.908 410.406 121.051 410.406Z" fill="#FF6161"/>
<path d="M644.797 293.016C653.94 293.016 661.352 285.604 661.352 276.461C661.352 267.318 653.94 259.906 644.797 259.906C635.654 259.906 628.242 267.318 628.242 276.461C628.242 285.604 635.654 293.016 644.797 293.016Z" fill="#FF6161"/>
<path d="M697.297 556.938C706.44 556.938 713.852 549.526 713.852 540.383C713.852 531.239 706.44 523.828 697.297 523.828C688.154 523.828 680.742 531.239 680.742 540.383C680.742 549.526 688.154 556.938 697.297 556.938Z" fill="#FF6161"/>
<path d="M499.002 133.386C508.145 133.386 515.557 125.974 515.557 116.831C515.557 107.687 508.145 100.275 499.002 100.275C489.859 100.275 482.447 107.687 482.447 116.831C482.447 125.974 489.859 133.386 499.002 133.386Z" fill="#FF6161"/>
<path d="M528.026 640.021C552.684 640.021 572.674 620.031 572.674 595.372C572.674 570.713 552.684 550.724 528.026 550.724C503.367 550.724 483.377 570.713 483.377 595.372C483.377 620.031 503.367 640.021 528.026 640.021Z" fill="#FF6161"/>
<path d="M523.214 604.714C514.512 607.784 509.54 611.791 510.344 616.579C515.997 618.605 523.465 619.736 531.23 619.741C538.999 619.734 546.475 618.608 552.133 616.581C552.669 611.584 545.819 606.298 539.248 604.718C538.398 606.768 535.07 609.54 531.23 609.542C527.388 609.535 524.06 606.765 523.214 604.714Z" fill="#FF6161"/>
<path d="M518.797 601.796C508.769 605.462 503.038 610.248 503.965 615.965C510.48 618.384 519.088 619.735 528.037 619.741C536.992 619.734 545.607 618.388 552.128 615.968C552.746 610 544.851 603.688 537.278 601.801C536.297 604.249 532.463 607.56 528.037 607.562C523.608 607.555 519.773 604.246 518.797 601.796Z" stroke="#FF6161" stroke-width="1.6623" stroke-linecap="round"/>
<path d="M521.614 573.613V573.769V573.924C521.614 576.363 519.779 578.372 517.414 578.65V589.268C517.414 594.939 522.011 599.535 527.681 599.535C527.794 599.535 527.904 599.523 528.016 599.517C528.128 599.517 528.238 599.535 528.351 599.535C534.021 599.535 538.618 594.939 538.618 589.268V578.65C536.253 578.372 534.418 576.363 534.418 573.924V573.769V573.613H521.614Z" stroke="#FF6161" stroke-width="1.6623" stroke-linecap="round"/>
<path d="M527.575 562.277C520.139 562.277 514.111 568.305 514.111 575.741C514.111 580.331 514.111 574.092 514.111 578.686H516.853C519.483 578.686 521.614 576.553 521.614 573.924V573.769V573.613H534.418V573.769V573.924C534.418 576.553 536.548 578.686 539.178 578.686H541.92C541.92 574.411 541.92 580.016 541.92 575.741C541.92 568.305 535.891 562.277 528.456 562.277C528.309 562.277 528.166 562.301 528.015 562.301C527.869 562.291 527.726 562.277 527.575 562.277V562.277Z" stroke="#FF6161" stroke-width="1.6623" stroke-linecap="round"/>
<path d="M516.977 578.684C515.701 578.715 514.488 579.244 513.596 580.157C512.705 581.07 512.206 582.296 512.205 583.572C512.206 584.848 512.706 586.073 513.597 586.986C514.489 587.898 515.702 588.427 516.977 588.458V578.684Z" stroke="#FF6161" stroke-width="1.6623" stroke-linecap="round"/>
<path d="M539.053 578.684C540.329 578.715 541.542 579.244 542.433 580.157C543.325 581.07 543.825 582.296 543.825 583.572C543.824 584.848 543.325 586.073 542.433 586.986C541.542 587.898 540.328 588.427 539.053 588.458V578.684Z" stroke="#FF6161" stroke-width="1.6623" stroke-linecap="round"/>
<path d="M455.547 729.979C464.69 729.979 472.102 722.567 472.102 713.424C472.102 704.281 464.69 696.869 455.547 696.869C446.404 696.869 438.992 704.281 438.992 713.424C438.992 722.567 446.404 729.979 455.547 729.979Z" fill="#FF6161"/>
</svg>
