<svg width="31" height="31" viewBox="0 0 31 31" fill="none" xmlns="http://www.w3.org/2000/svg">
<path d="M10.3407 13.3421C10.3407 13.0106 10.4724 12.6926 10.7068 12.4582C10.9412 12.2238 11.2592 12.0921 11.5907 12.0921H19.0907C19.4222 12.0921 19.7402 12.2238 19.9746 12.4582C20.209 12.6926 20.3407 13.0106 20.3407 13.3421C20.3407 13.6736 20.209 13.9915 19.9746 14.226C19.7402 14.4604 19.4222 14.5921 19.0907 14.5921H11.5907C11.2592 14.5921 10.9412 14.4604 10.7068 14.226C10.4724 13.9915 10.3407 13.6736 10.3407 13.3421ZM11.5907 17.0921C11.2592 17.0921 10.9412 17.2238 10.7068 17.4582C10.4724 17.6926 10.3407 18.0106 10.3407 18.3421C10.3407 18.6736 10.4724 18.9915 10.7068 19.226C10.9412 19.4604 11.2592 19.5921 11.5907 19.5921H16.5907C16.9222 19.5921 17.2402 19.4604 17.4746 19.226C17.709 18.9915 17.8407 18.6736 17.8407 18.3421C17.8407 18.0106 17.709 17.6926 17.4746 17.4582C17.2402 17.2238 16.9222 17.0921 16.5907 17.0921H11.5907ZM0.340707 15.8421C0.341345 12.5397 1.43177 9.32982 3.44283 6.7104C5.45389 4.09097 8.27316 2.20842 11.4633 1.35478C14.6535 0.501136 18.0361 0.724118 21.0866 1.98913C24.1371 3.25415 26.6849 5.49049 28.3347 8.35123C29.9845 11.212 30.6442 14.5372 30.2113 17.8111C29.7784 21.085 28.2773 24.1245 25.9407 26.4582C23.6041 28.7919 20.5627 30.2892 17.2882 30.718C14.0138 31.1468 10.6894 30.483 7.83071 28.8296L1.98571 30.7796C1.76976 30.8517 1.53823 30.8634 1.31609 30.8136C1.09396 30.7637 0.889656 30.6541 0.725238 30.4967C0.56082 30.3392 0.442531 30.1398 0.383135 29.92C0.323739 29.7003 0.325493 29.4684 0.388207 29.2496L2.16821 23.0221C0.968257 20.8192 0.339925 18.3506 0.340707 15.8421ZM15.3407 3.34208C13.1337 3.34194 10.9659 3.92616 9.05785 5.03534C7.14977 6.14453 5.56938 7.73914 4.47733 9.65708C3.38529 11.575 2.82052 13.7479 2.84043 15.9549C2.86034 18.1618 3.46423 20.3242 4.59071 22.2221C4.67738 22.3687 4.73317 22.5315 4.75467 22.7004C4.77616 22.8694 4.7629 23.0409 4.71571 23.2046L3.44321 27.6546L7.58821 26.2746C7.76424 26.2158 7.95115 26.197 8.13536 26.2195C8.31958 26.242 8.49647 26.3052 8.65321 26.4046C10.2914 27.4413 12.1482 28.0828 14.077 28.2783C16.0058 28.4739 17.9536 28.2181 19.7665 27.5312C21.5795 26.8444 23.2078 25.7452 24.5227 24.3207C25.8377 22.8962 26.8033 21.1853 27.3432 19.3233C27.8832 17.4614 27.9826 15.4993 27.6337 13.5923C27.2847 11.6853 26.497 9.8856 25.3328 8.33544C24.1686 6.78528 22.6597 5.52716 20.9256 4.66054C19.1914 3.79391 17.2794 3.34253 15.3407 3.34208Z" fill="#FF3131"/>
</svg>
