<svg width="41" height="41" viewBox="0 0 41 41" fill="none" xmlns="http://www.w3.org/2000/svg">
<path d="M17.168 36.2638H23.8346" stroke="black" stroke-width="1.5" stroke-linecap="round"/>
<path d="M29.147 31.2638H8.54362C8.24612 31.2638 7.95403 31.1842 7.69769 31.0332C7.44135 30.8822 7.23011 30.6653 7.08588 30.4051C6.94166 30.1449 6.86972 29.8508 6.87753 29.5534C6.88534 29.256 6.97261 28.9661 7.13029 28.7138L8.94529 25.8138C9.44254 25.0193 9.70646 24.1011 9.70696 23.1638V16.2238C9.70696 14.9105 9.94029 13.6522 10.3703 12.4872M13.2003 8.27716L13.3003 8.18549C14.8531 6.79488 16.7753 5.88358 18.8348 5.56165C20.8942 5.23973 23.0028 5.52094 24.9059 6.37133C26.8091 7.22172 28.4253 8.60491 29.5594 10.3539C30.6935 12.1028 31.297 14.1427 31.297 16.2272V23.1622C31.2968 24.1006 31.5608 25.02 32.0586 25.8155L33.872 28.7155C33.9475 28.8333 34.0053 28.9549 34.0453 29.0805" stroke="black" stroke-width="1.5" stroke-linecap="round" stroke-linejoin="round"/>
<path d="M35.0323 37.1505L29.1473 31.2655L10.3706 12.4888L4.19727 6.31714" stroke="black" stroke-width="1.5" stroke-linecap="round" stroke-linejoin="round"/>
</svg>
