<svg width="43" height="43" viewBox="0 0 43 43" fill="none" xmlns="http://www.w3.org/2000/svg">
<path opacity="0.6" d="M19.2591 2.57666C20.0429 0.458596 23.0387 0.458596 23.8224 2.57666L28.0519 14.0068C28.2984 14.6727 28.8234 15.1978 29.4893 15.4442L40.9194 19.6737C43.0375 20.4575 43.0375 23.4532 40.9194 24.237L29.4893 28.4665C28.8234 28.7129 28.2984 29.2379 28.0519 29.9039L23.8224 41.334C23.0387 43.4521 20.0429 43.4521 19.2591 41.334L15.0296 29.9039C14.7832 29.2379 14.2582 28.7129 13.5923 28.4665L2.16211 24.237C0.0440454 23.4532 0.044045 20.4575 2.16211 19.6737L13.5923 15.4442C14.2582 15.1978 14.7832 14.6727 15.0296 14.0068L19.2591 2.57666Z" fill="#F8F9FF"/>
</svg>
